<svg xmlns="http://www.w3.org/2000/svg" xmlns:xlink="http://www.w3.org/1999/xlink" xmlns:s="https://github.com/nturley/netlistsvg" width="910" height="493">
  <style>svg {
    stroke:#000;
    fill:none;
  }
  text {
    fill:#000;
    stroke:none;
    font-size:10px;
    font-weight: bold;
    font-family: "Courier New", monospace;
  }
  .nodelabel {
    text-anchor: middle;
  }
  .inputPortLabel {
    text-anchor: end;
  }
  .splitjoinBody {
    fill:#000;
  }</style>
  <g s:type="add" transform="translate(392.3333333333333,258.5)" s:width="25" s:height="25" id="cell_$add$mkTop.v:73$8">
    <s:alias val="$add"/>
    <circle r="12.5" cx="12.5" cy="12.5" class="cell_$add$mkTop.v:73$8"/>
    <line x1="7.5" x2="17.5" y1="12.5" y2="12.5" class="cell_$add$mkTop.v:73$8"/>
    <line x1="12.5" x2="12.5" y1="7.5" y2="17.5" class="cell_$add$mkTop.v:73$8"/>
    <g s:x="3" s:y="5" s:pid="A"/>
    <g s:x="3" s:y="20" s:pid="B"/>
    <g s:x="25" s:y="12.5" s:pid="Y"/>
  </g>
  <g s:type="eq" transform="translate(256.5,363.5)" s:width="25" s:height="25" id="cell_$eq$mkTop.v:67$3">
    <s:alias val="$eq"/>
    <circle r="12.5" cx="12.5" cy="12.5" class="cell_$eq$mkTop.v:67$3"/>
    <line x1="7.5" x2="17.5" y1="10" y2="10" class="cell_$eq$mkTop.v:67$3"/>
    <line x1="7.5" x2="17.5" y1="15" y2="15" class="cell_$eq$mkTop.v:67$3"/>
    <g s:x="3" s:y="5" s:pid="A"/>
    <g s:x="3" s:y="20" s:pid="B"/>
    <g s:x="25" s:y="12.5" s:pid="Y"/>
  </g>
  <g s:type="and" transform="translate(189,413.5)" s:width="30" s:height="25" id="cell_$logic_and$mkTop.v:67$4">
    <s:alias val="$and"/>
    <s:alias val="$logic_and"/>
    <s:alias val="$_AND_"/>
    <path d="M0,0 L0,25 L15,25 A15 12.5 0 0 0 15,0 Z" class="cell_$logic_and$mkTop.v:67$4"/>
    <g s:x="0" s:y="5" s:pid="A"/>
    <g s:x="0" s:y="20" s:pid="B"/>
    <g s:x="30" s:y="12.5" s:pid="Y"/>
  </g>
  <g s:type="and" transform="translate(324,356)" s:width="30" s:height="25" id="cell_$logic_and$mkTop.v:70$7">
    <s:alias val="$and"/>
    <s:alias val="$logic_and"/>
    <s:alias val="$_AND_"/>
    <path d="M0,0 L0,25 L15,25 A15 12.5 0 0 0 15,0 Z" class="cell_$logic_and$mkTop.v:70$7"/>
    <g s:x="0" s:y="5" s:pid="A"/>
    <g s:x="0" s:y="20" s:pid="B"/>
    <g s:x="30" s:y="12.5" s:pid="Y"/>
  </g>
  <g s:type="and" transform="translate(389,363.5)" s:width="30" s:height="25" id="cell_$logic_and$mkTop.v:82$12">
    <s:alias val="$and"/>
    <s:alias val="$logic_and"/>
    <s:alias val="$_AND_"/>
    <path d="M0,0 L0,25 L15,25 A15 12.5 0 0 0 15,0 Z" class="cell_$logic_and$mkTop.v:82$12"/>
    <g s:x="0" s:y="5" s:pid="A"/>
    <g s:x="0" s:y="20" s:pid="B"/>
    <g s:x="30" s:y="12.5" s:pid="Y"/>
  </g>
  <g s:type="not" transform="translate(124,408.5)" s:width="30" s:height="20" id="cell_$logic_not$mkTop.v:67$2">
    <s:alias val="$_NOT_"/>
    <s:alias val="$not"/>
    <s:alias val="$logic_not"/>
    <path d="M0,0 L0,20 L20,10 Z" class="cell_$logic_not$mkTop.v:67$2"/>
    <circle cx="23" cy="10" r="3" class="cell_$logic_not$mkTop.v:67$2"/>
    <g s:x="0" s:y="10" s:pid="A"/>
    <g s:x="25" s:y="10" s:pid="Y"/>
  </g>
  <g s:type="not" transform="translate(254,438.5)" s:width="30" s:height="20" id="cell_$logic_not$mkTop.v:70$5">
    <s:alias val="$_NOT_"/>
    <s:alias val="$not"/>
    <s:alias val="$logic_not"/>
    <path d="M0,0 L0,20 L20,10 Z" class="cell_$logic_not$mkTop.v:70$5"/>
    <circle cx="23" cy="10" r="3" class="cell_$logic_not$mkTop.v:70$5"/>
    <g s:x="0" s:y="10" s:pid="A"/>
    <g s:x="25" s:y="10" s:pid="Y"/>
  </g>
  <g s:type="not" transform="translate(324,416)" s:width="30" s:height="20" id="cell_$logic_not$mkTop.v:82$11">
    <s:alias val="$_NOT_"/>
    <s:alias val="$not"/>
    <s:alias val="$logic_not"/>
    <path d="M0,0 L0,20 L20,10 Z" class="cell_$logic_not$mkTop.v:82$11"/>
    <circle cx="23" cy="10" r="3" class="cell_$logic_not$mkTop.v:82$11"/>
    <g s:x="0" s:y="10" s:pid="A"/>
    <g s:x="25" s:y="10" s:pid="Y"/>
  </g>
  <g s:type="or" transform="translate(454,456)" s:width="30" s:height="25" id="cell_$logic_or$mkTop.v:82$13">
    <s:alias val="$or"/>
    <s:alias val="$logic_or"/>
    <s:alias val="$_OR_"/>
    <path d="M0,25 L0,25 L15,25 A15 12.5 0 0 0 15,0 L0,0" class="cell_$logic_or$mkTop.v:82$13"/>
    <path d="M0,0 A30 25 0 0 1 0,25" class="cell_$logic_or$mkTop.v:82$13"/>
    <g s:x="3" s:y="5" s:pid="A"/>
    <g s:x="3" s:y="20" s:pid="B"/>
    <g s:x="30" s:y="12.5" s:pid="Y"/>
  </g>
  <g s:type="generic" transform="translate(591,84)" s:width="30" s:height="40" id="cell_$ne$mkTop.v:86$14">
    <text x="15" y="-4" class="nodelabel cell_$ne$mkTop.v:86$14" s:attribute="ref">$ne</text>
    <rect width="30" height="40" s:generic="body" class="cell_$ne$mkTop.v:86$14"/>
    <g transform="translate(0,10)" s:x="0" s:y="10" s:pid="in0" id="port_$ne$mkTop.v:86$14~A">
      <text x="-3" y="-4" class="inputPortLabel cell_$ne$mkTop.v:86$14">A</text>
    </g>
    <g transform="translate(0,30)" s:x="0" s:y="10" s:pid="in0" id="port_$ne$mkTop.v:86$14~B">
      <text x="-3" y="-4" class="inputPortLabel cell_$ne$mkTop.v:86$14">B</text>
    </g>
    <g transform="translate(30,10)" s:x="30" s:y="10" s:pid="out0" id="port_$ne$mkTop.v:86$14~Y">
      <text x="5" y="-4" style="fill:#000; stroke:none" class="cell_$ne$mkTop.v:86$14">Y</text>
    </g>
  </g>
  <g s:type="not" transform="translate(793,261)" s:width="30" s:height="20" id="cell_$not$mkTop.v:64$1">
    <s:alias val="$_NOT_"/>
    <s:alias val="$not"/>
    <s:alias val="$logic_not"/>
    <path d="M0,0 L0,20 L20,10 Z" class="cell_$not$mkTop.v:64$1"/>
    <circle cx="23" cy="10" r="3" class="cell_$not$mkTop.v:64$1"/>
    <g s:x="0" s:y="10" s:pid="A"/>
    <g s:x="25" s:y="10" s:pid="Y"/>
  </g>
  <g s:type="dff" transform="translate(728,261)" s:width="30" s:height="40" id="cell_$procdff$27">
    <s:alias val="$dff"/>
    <s:alias val="$_DFF_"/>
    <s:alias val="$_DFF_P_"/>
    <rect width="30" height="40" x="0" y="0" class="cell_$procdff$27"/>
    <path d="M0,35 L5,30 L0,25" class="cell_$procdff$27"/>
    <g s:x="30" s:y="10" s:pid="Q"/>
    <g s:x="0" s:y="30" s:pid="CLK"/>
    <g s:x="0" s:y="30" s:pid="C"/>
    <g s:x="0" s:y="10" s:pid="D"/>
  </g>
  <g s:type="dff" transform="translate(858,33)" s:width="30" s:height="40" id="cell_$procdff$28">
    <s:alias val="$dff"/>
    <s:alias val="$_DFF_"/>
    <s:alias val="$_DFF_P_"/>
    <rect width="30" height="40" x="0" y="0" class="cell_$procdff$28"/>
    <path d="M0,35 L5,30 L0,25" class="cell_$procdff$28"/>
    <g s:x="30" s:y="10" s:pid="Q"/>
    <g s:x="0" s:y="30" s:pid="CLK"/>
    <g s:x="0" s:y="30" s:pid="C"/>
    <g s:x="0" s:y="10" s:pid="D"/>
  </g>
  <g s:type="mux" transform="translate(734.6666666666666,33)" s:width="20" s:height="40" id="cell_$procmux$17">
    <s:alias val="$pmux"/>
    <s:alias val="$mux"/>
    <s:alias val="$_MUX_"/>
    <path d="M0,0 L20,10 L20,30 L0,40 Z" class="cell_$procmux$17"/>
    <g s:x="0" s:y="10" s:pid="A"/>
    <g s:x="0" s:y="30" s:pid="B"/>
    <g s:x="10" s:y="35" s:pid="S"/>
    <g s:x="20" s:y="20" s:pid="Y"/>
  </g>
  <g s:type="mux" transform="translate(796.3333333333334,23)" s:width="20" s:height="40" id="cell_$procmux$20">
    <s:alias val="$pmux"/>
    <s:alias val="$mux"/>
    <s:alias val="$_MUX_"/>
    <path d="M0,0 L20,10 L20,30 L0,40 Z" class="cell_$procmux$20"/>
    <g s:x="0" s:y="10" s:pid="A"/>
    <g s:x="0" s:y="30" s:pid="B"/>
    <g s:x="10" s:y="35" s:pid="S"/>
    <g s:x="20" s:y="20" s:pid="Y"/>
  </g>
  <g s:type="mux" transform="translate(525.6666666666666,364.5)" s:width="20" s:height="40" id="cell_$procmux$22">
    <s:alias val="$pmux"/>
    <s:alias val="$mux"/>
    <s:alias val="$_MUX_"/>
    <path d="M0,0 L20,10 L20,30 L0,40 Z" class="cell_$procmux$22"/>
    <g s:x="0" s:y="10" s:pid="A"/>
    <g s:x="0" s:y="30" s:pid="B"/>
    <g s:x="10" s:y="35" s:pid="S"/>
    <g s:x="20" s:y="20" s:pid="Y"/>
  </g>
  <g s:type="mux" transform="translate(616,251)" s:width="20" s:height="40" id="cell_$procmux$25">
    <s:alias val="$pmux"/>
    <s:alias val="$mux"/>
    <s:alias val="$_MUX_"/>
    <path d="M0,0 L20,10 L20,30 L0,40 Z" class="cell_$procmux$25"/>
    <g s:x="0" s:y="10" s:pid="A"/>
    <g s:x="0" s:y="30" s:pid="B"/>
    <g s:x="10" s:y="35" s:pid="S"/>
    <g s:x="20" s:y="20" s:pid="Y"/>
  </g>
  <g s:type="sub" transform="translate(392.3333333333333,318.5)" s:width="25" s:height="25" id="cell_$sub$mkTop.v:74$9">
    <s:alias val="$sub"/>
    <circle r="12.5" cx="12.5" cy="12.5" class="cell_$sub$mkTop.v:74$9"/>
    <line x1="7.5" x2="17.5" y1="12.5" y2="12.5" class="cell_$sub$mkTop.v:74$9"/>
    <g s:x="3" s:y="5" s:pid="A"/>
    <g s:x="3" s:y="20" s:pid="B"/>
    <g s:x="25" s:y="12.5" s:pid="Y"/>
  </g>
  <g s:type="mux" transform="translate(457.3333333333333,241)" s:width="20" s:height="40" id="cell_$ternary$mkTop.v:78$10">
    <s:alias val="$pmux"/>
    <s:alias val="$mux"/>
    <s:alias val="$_MUX_"/>
    <path d="M0,0 L20,10 L20,30 L0,40 Z" class="cell_$ternary$mkTop.v:78$10"/>
    <g s:x="0" s:y="10" s:pid="A"/>
    <g s:x="0" s:y="30" s:pid="B"/>
    <g s:x="10" s:y="35" s:pid="S"/>
    <g s:x="20" s:y="20" s:pid="Y"/>
  </g>
  <g s:type="inputExt" transform="translate(12,53)" s:width="30" s:height="20" id="cell_BTNS">
    <text x="15" y="-4" class="nodelabel cell_BTNS" s:attribute="ref">BTNS</text>
    <s:alias val="$_inputExt_"/>
    <path d="M0,0 L0,20 L15,20 L30,10 L15,0 Z" class="cell_BTNS"/>
    <g s:x="28" s:y="10" s:pid="Y"/>
  </g>
  <g s:type="inputExt" transform="translate(591,180)" s:width="30" s:height="20" id="cell_CLK">
    <text x="15" y="-4" class="nodelabel cell_CLK" s:attribute="ref">CLK</text>
    <s:alias val="$_inputExt_"/>
    <path d="M0,0 L0,20 L15,20 L30,10 L15,0 Z" class="cell_CLK"/>
    <g s:x="28" s:y="10" s:pid="Y"/>
  </g>
  <g s:type="inputExt" transform="translate(519,200)" s:width="30" s:height="20" id="cell_RST_N">
    <text x="15" y="-4" class="nodelabel cell_RST_N" s:attribute="ref">RST_N</text>
    <s:alias val="$_inputExt_"/>
    <path d="M0,0 L0,20 L15,20 L30,10 L15,0 Z" class="cell_RST_N"/>
    <g s:x="28" s:y="10" s:pid="Y"/>
  </g>
  <g s:type="outputExt" transform="translate(858,261)" s:width="30" s:height="20" id="cell_LEDS">
    <text x="15" y="-4" class="nodelabel cell_LEDS" s:attribute="ref">LEDS</text>
    <s:alias val="$_outputExt_"/>
    <path d="M30,0 L30,20 L15,20 L0,10 L15,0 Z" class="cell_LEDS"/>
    <g s:x="0" s:y="10" s:pid="A"/>
  </g>
  <g s:type="constant" transform="translate(324,268.5)" s:width="30" s:height="20" id="cell_1">
    <text x="15" y="-4" class="nodelabel cell_1" s:attribute="ref">1</text>
    <s:alias val="$_constant_"/>
    <rect width="30" height="20" class="cell_1"/>
    <g s:x="30" s:y="10" s:pid="Y"/>
  </g>
  <g s:type="constant" transform="translate(189,138)" s:width="30" s:height="20" id="cell_11">
    <text x="15" y="-4" class="nodelabel cell_11" s:attribute="ref">11</text>
    <s:alias val="$_constant_"/>
    <rect width="30" height="20" class="cell_11"/>
    <g s:x="30" s:y="10" s:pid="Y"/>
  </g>
  <g s:type="constant" transform="translate(519,251)" s:width="30" s:height="20" id="cell_000000">
    <text x="15" y="-4" class="nodelabel cell_000000" s:attribute="ref">0x0</text>
    <s:alias val="$_constant_"/>
    <rect width="30" height="20" class="cell_000000"/>
    <g s:x="30" s:y="10" s:pid="Y"/>
  </g>
  <g s:type="split" transform="translate(77,408)" s:width="5" s:height="40" id="cell_$split$,2,3,">
    <rect width="5" height="40" class="splitjoinBody" s:generic="body"/>
    <s:alias val="$_split_"/>
    <g s:x="0" s:y="20" s:pid="in"/>
    <g transform="translate(4,10)" s:x="4" s:y="10" s:pid="out0">
      <text x="5" y="-4">0</text>
    </g>
    <g transform="translate(4,30)" s:x="4" s:y="10" s:pid="out0">
      <text x="5" y="-4">1</text>
    </g>
  </g>
  <line x1="758" x2="768" y1="271" y2="271" class="net_12,13,14,15,16,17"/>
  <line x1="768" x2="768" y1="271" y2="230" class="net_12,13,14,15,16,17"/>
  <line x1="768" x2="374" y1="230" y2="230" class="net_12,13,14,15,16,17"/>
  <line x1="374" x2="374" y1="230" y2="263.5" class="net_12,13,14,15,16,17"/>
  <circle cx="768" cy="271" r="2" style="fill:#000" class="net_12,13,14,15,16,17"/>
  <line x1="374" x2="395.3333333333333" y1="263.5" y2="263.5" class="net_12,13,14,15,16,17"/>
  <line x1="758" x2="793" y1="271" y2="271" class="net_12,13,14,15,16,17"/>
  <line x1="758" x2="768" y1="271" y2="271" class="net_12,13,14,15,16,17"/>
  <line x1="768" x2="768" y1="271" y2="353.5" class="net_12,13,14,15,16,17"/>
  <line x1="768" x2="504" y1="353.5" y2="353.5" class="net_12,13,14,15,16,17"/>
  <line x1="504" x2="504" y1="353.5" y2="374.5" class="net_12,13,14,15,16,17"/>
  <circle cx="504" cy="353.5" r="2" style="fill:#000" class="net_12,13,14,15,16,17"/>
  <line x1="504" x2="525.6666666666666" y1="374.5" y2="374.5" class="net_12,13,14,15,16,17"/>
  <line x1="758" x2="768" y1="271" y2="271" class="net_12,13,14,15,16,17"/>
  <line x1="768" x2="768" y1="271" y2="353.5" class="net_12,13,14,15,16,17"/>
  <line x1="768" x2="364" y1="353.5" y2="353.5" class="net_12,13,14,15,16,17"/>
  <line x1="364" x2="364" y1="353.5" y2="323.5" class="net_12,13,14,15,16,17"/>
  <line x1="364" x2="395.3333333333333" y1="323.5" y2="323.5" class="net_12,13,14,15,16,17"/>
  <line x1="354" x2="395.3333333333333" y1="278.5" y2="278.5" class="net_63"/>
  <line x1="354" x2="374" y1="278.5" y2="278.5" class="net_63"/>
  <line x1="374" x2="374" y1="278.5" y2="338.5" class="net_63"/>
  <circle cx="374" cy="278.5" r="2" style="fill:#000" class="net_63"/>
  <line x1="374" x2="395.3333333333333" y1="338.5" y2="338.5" class="net_63"/>
  <line x1="888" x2="898" y1="43" y2="43" class="net_24,25"/>
  <line x1="898" x2="898" y1="43" y2="159" class="net_24,25"/>
  <line x1="898" x2="239" y1="159" y2="159" class="net_24,25"/>
  <line x1="239" x2="239" y1="159" y2="368.5" class="net_24,25"/>
  <line x1="239" x2="259.5" y1="368.5" y2="368.5" class="net_24,25"/>
  <line x1="888" x2="898" y1="43" y2="43" class="net_24,25"/>
  <line x1="898" x2="898" y1="43" y2="12" class="net_24,25"/>
  <line x1="898" x2="768" y1="12" y2="12" class="net_24,25"/>
  <line x1="768" x2="768" y1="12" y2="137" class="net_24,25"/>
  <line x1="768" x2="569" y1="137" y2="137" class="net_24,25"/>
  <line x1="569" x2="569" y1="137" y2="114.5" class="net_24,25"/>
  <circle cx="768" cy="12" r="2" style="fill:#000" class="net_24,25"/>
  <line x1="569" x2="591" y1="114.5" y2="114.5" class="net_24,25"/>
  <line x1="888" x2="898" y1="43" y2="43" class="net_24,25"/>
  <line x1="898" x2="898" y1="43" y2="12" class="net_24,25"/>
  <line x1="898" x2="703" y1="12" y2="12" class="net_24,25"/>
  <line x1="703" x2="703" y1="12" y2="43" class="net_24,25"/>
  <circle cx="898" cy="43" r="2" style="fill:#000" class="net_24,25"/>
  <line x1="703" x2="734.6666666666666" y1="43" y2="43" class="net_24,25"/>
  <line x1="219" x2="229" y1="148" y2="148" class="net_64,65"/>
  <line x1="229" x2="229" y1="148" y2="383.5" class="net_64,65"/>
  <circle cx="229" cy="148" r="2" style="fill:#000" class="net_64,65"/>
  <line x1="229" x2="259.5" y1="383.5" y2="383.5" class="net_64,65"/>
  <line x1="219" x2="778" y1="148" y2="148" class="net_64,65"/>
  <line x1="778" x2="778" y1="148" y2="33" class="net_64,65"/>
  <line x1="778" x2="796.3333333333334" y1="33" y2="33" class="net_64,65"/>
  <line x1="149" x2="189" y1="418.5" y2="418.5" class="net_27"/>
  <line x1="281.5" x2="294" y1="376" y2="376" class="net_26"/>
  <line x1="294" x2="294" y1="376" y2="398.5" class="net_26"/>
  <line x1="294" x2="164" y1="398.5" y2="398.5" class="net_26"/>
  <line x1="164" x2="164" y1="398.5" y2="433.5" class="net_26"/>
  <circle cx="294" cy="376" r="2" style="fill:#000" class="net_26"/>
  <line x1="164" x2="189" y1="433.5" y2="433.5" class="net_26"/>
  <line x1="281.5" x2="324" y1="376" y2="376" class="net_26"/>
  <line x1="279" x2="304" y1="448.5" y2="448.5" class="net_29"/>
  <line x1="304" x2="304" y1="448.5" y2="361" class="net_29"/>
  <line x1="304" x2="324" y1="361" y2="361" class="net_29"/>
  <line x1="354" x2="389" y1="368.5" y2="368.5" class="net_30"/>
  <line x1="349" x2="364" y1="426" y2="426" class="net_31"/>
  <line x1="364" x2="364" y1="426" y2="383.5" class="net_31"/>
  <line x1="364" x2="389" y1="383.5" y2="383.5" class="net_31"/>
  <line x1="82" x2="124" y1="418.5" y2="418.5" class="net_2"/>
  <line x1="82" x2="99" y1="438.5" y2="438.5" class="net_3"/>
  <line x1="99" x2="99" y1="438.5" y2="448.5" class="net_3"/>
  <line x1="99" x2="254" y1="448.5" y2="448.5" class="net_3"/>
  <line x1="219" x2="324" y1="426" y2="426" class="net_28"/>
  <line x1="219" x2="314" y1="426" y2="426" class="net_28"/>
  <line x1="314" x2="314" y1="426" y2="446" class="net_28"/>
  <line x1="314" x2="439" y1="446" y2="446" class="net_28"/>
  <line x1="439" x2="439" y1="446" y2="461" class="net_28"/>
  <circle cx="439" cy="446" r="2" style="fill:#000" class="net_28"/>
  <line x1="439" x2="457" y1="461" y2="461" class="net_28"/>
  <line x1="219" x2="314" y1="426" y2="426" class="net_28"/>
  <line x1="314" x2="314" y1="426" y2="446" class="net_28"/>
  <line x1="314" x2="467.3333333333333" y1="446" y2="446" class="net_28"/>
  <circle cx="314" cy="426" r="2" style="fill:#000" class="net_28"/>
  <line x1="467.3333333333333" x2="467.3333333333333" y1="446" y2="276" class="net_28"/>
  <line x1="419" x2="429" y1="376" y2="376" class="net_32"/>
  <line x1="429" x2="429" y1="376" y2="476" class="net_32"/>
  <line x1="429" x2="457" y1="476" y2="476" class="net_32"/>
  <line x1="40" x2="559" y1="63" y2="63" class="net_2,3"/>
  <line x1="559" x2="559" y1="63" y2="94.5" class="net_2,3"/>
  <circle cx="559" cy="63" r="2" style="fill:#000" class="net_2,3"/>
  <line x1="559" x2="591" y1="94.5" y2="94.5" class="net_2,3"/>
  <line x1="40" x2="734.6666666666666" y1="63" y2="63" class="net_2,3"/>
  <line x1="40" x2="52" y1="63" y2="63" class="net_2,3"/>
  <line x1="52" x2="52" y1="63" y2="428.5" class="net_2,3"/>
  <circle cx="52" cy="63" r="2" style="fill:#000" class="net_2,3"/>
  <line x1="52" x2="77" y1="428.5" y2="428.5" class="net_2,3"/>
  <line x1="619" x2="703" y1="190" y2="190" class="net_4"/>
  <line x1="703" x2="703" y1="190" y2="291" class="net_4"/>
  <circle cx="703" cy="190" r="2" style="fill:#000" class="net_4"/>
  <line x1="703" x2="728" y1="291" y2="291" class="net_4"/>
  <line x1="619" x2="833" y1="190" y2="190" class="net_4"/>
  <line x1="833" x2="833" y1="190" y2="63" class="net_4"/>
  <line x1="833" x2="858" y1="63" y2="63" class="net_4"/>
  <line x1="636" x2="728" y1="271" y2="271" class="net_35,36,37,38,39,40"/>
  <line x1="816.3333333333334" x2="858" y1="43" y2="43" class="net_41,42"/>
  <line x1="622" x2="744.6666666666666" y1="94.5" y2="94.5" class="net_34"/>
  <line x1="744.6666666666666" x2="744.6666666666666" y1="94.5" y2="68" class="net_34"/>
  <line x1="754.6666666666666" x2="796.3333333333334" y1="53" y2="53" class="net_43,44"/>
  <line x1="547" x2="806.3333333333334" y1="210" y2="210" class="net_5"/>
  <line x1="806.3333333333334" x2="806.3333333333334" y1="210" y2="58" class="net_5"/>
  <line x1="547" x2="569" y1="210" y2="210" class="net_5"/>
  <line x1="569" x2="569" y1="210" y2="301" class="net_5"/>
  <line x1="569" x2="626" y1="301" y2="301" class="net_5"/>
  <circle cx="569" cy="210" r="2" style="fill:#000" class="net_5"/>
  <line x1="626" x2="626" y1="301" y2="286" class="net_5"/>
  <line x1="477.3333333333333" x2="494" y1="261" y2="261" class="net_45,46,47,48,49,50"/>
  <line x1="494" x2="494" y1="261" y2="394.5" class="net_45,46,47,48,49,50"/>
  <line x1="494" x2="525.6666666666666" y1="394.5" y2="394.5" class="net_45,46,47,48,49,50"/>
  <line x1="484" x2="535.6666666666666" y1="468.5" y2="468.5" class="net_33"/>
  <line x1="535.6666666666666" x2="535.6666666666666" y1="468.5" y2="399.5" class="net_33"/>
  <line x1="549" x2="616" y1="261" y2="261" class="net_68,69,70,71,72,73"/>
  <line x1="545.6666666666666" x2="559" y1="384.5" y2="384.5" class="net_51,52,53,54,55,56"/>
  <line x1="559" x2="559" y1="384.5" y2="281" class="net_51,52,53,54,55,56"/>
  <line x1="559" x2="616" y1="281" y2="281" class="net_51,52,53,54,55,56"/>
  <line x1="417.3333333333333" x2="429" y1="331" y2="331" class="net_57,58,59,60,61,62"/>
  <line x1="429" x2="429" y1="331" y2="251" class="net_57,58,59,60,61,62"/>
  <line x1="429" x2="457.3333333333333" y1="251" y2="251" class="net_57,58,59,60,61,62"/>
  <line x1="417.3333333333333" x2="457.3333333333333" y1="271" y2="271" class="net_18,19,20,21,22,23"/>
  <line x1="818" x2="858" y1="271" y2="271" class="net_6,7,8,9,10,11"/>
</svg>
